<mxfile host="app.diagrams.net" modified="2021-02-12T20:36:29.374Z" agent="5.0 (Windows NT 10.0; Win64; x64) AppleWebKit/537.36 (KHTML, like Gecko) Chrome/88.0.4324.150 Safari/537.36 Edg/88.0.705.63" etag="kbGunlvugmso81rAdhYS" version="14.3.1" type="github">
  <diagram name="Page-1" id="0783ab3e-0a74-02c8-0abd-f7b4e66b4bec">
    <mxGraphModel dx="920" dy="491" grid="1" gridSize="10" guides="1" tooltips="1" connect="1" arrows="1" fold="1" page="1" pageScale="1" pageWidth="850" pageHeight="1100" background="#ffffff" math="0" shadow="0">
      <root>
        <mxCell id="0" />
        <mxCell id="1" parent="0" />
        <mxCell id="FaYPZW8Sgpp_Iw3l_1al-98" style="edgeStyle=orthogonalEdgeStyle;rounded=0;orthogonalLoop=1;jettySize=auto;html=1;exitX=0.5;exitY=1;exitDx=0;exitDy=0;entryX=0.5;entryY=0;entryDx=0;entryDy=0;" edge="1" parent="1" source="FaYPZW8Sgpp_Iw3l_1al-1" target="FaYPZW8Sgpp_Iw3l_1al-8">
          <mxGeometry relative="1" as="geometry" />
        </mxCell>
        <mxCell id="FaYPZW8Sgpp_Iw3l_1al-1" value="" style="ellipse;whiteSpace=wrap;html=1;aspect=fixed;fillColor=#000000;" vertex="1" parent="1">
          <mxGeometry x="415" y="20" width="20" height="20" as="geometry" />
        </mxCell>
        <mxCell id="FaYPZW8Sgpp_Iw3l_1al-34" style="edgeStyle=orthogonalEdgeStyle;rounded=0;orthogonalLoop=1;jettySize=auto;html=1;exitX=0.5;exitY=1;exitDx=0;exitDy=0;entryX=0;entryY=0.5;entryDx=0;entryDy=0;" edge="1" parent="1" source="FaYPZW8Sgpp_Iw3l_1al-2" target="FaYPZW8Sgpp_Iw3l_1al-11">
          <mxGeometry relative="1" as="geometry" />
        </mxCell>
        <mxCell id="FaYPZW8Sgpp_Iw3l_1al-2" value="Sign Up" style="rounded=1;whiteSpace=wrap;html=1;fillColor=#ffe6cc;strokeColor=#d79b00;" vertex="1" parent="1">
          <mxGeometry x="260" y="80" width="85" height="40" as="geometry" />
        </mxCell>
        <mxCell id="FaYPZW8Sgpp_Iw3l_1al-35" style="edgeStyle=orthogonalEdgeStyle;rounded=0;orthogonalLoop=1;jettySize=auto;html=1;exitX=0.5;exitY=1;exitDx=0;exitDy=0;entryX=1;entryY=0.5;entryDx=0;entryDy=0;" edge="1" parent="1" source="FaYPZW8Sgpp_Iw3l_1al-7" target="FaYPZW8Sgpp_Iw3l_1al-11">
          <mxGeometry relative="1" as="geometry" />
        </mxCell>
        <mxCell id="FaYPZW8Sgpp_Iw3l_1al-7" value="Login" style="rounded=1;whiteSpace=wrap;html=1;fillColor=#ffe6cc;strokeColor=#d79b00;" vertex="1" parent="1">
          <mxGeometry x="510" y="80" width="85" height="40" as="geometry" />
        </mxCell>
        <mxCell id="FaYPZW8Sgpp_Iw3l_1al-32" value="No" style="edgeStyle=orthogonalEdgeStyle;rounded=0;orthogonalLoop=1;jettySize=auto;html=1;exitX=0;exitY=0.5;exitDx=0;exitDy=0;entryX=1;entryY=0.5;entryDx=0;entryDy=0;" edge="1" parent="1" source="FaYPZW8Sgpp_Iw3l_1al-8" target="FaYPZW8Sgpp_Iw3l_1al-2">
          <mxGeometry relative="1" as="geometry" />
        </mxCell>
        <mxCell id="FaYPZW8Sgpp_Iw3l_1al-33" value="Yes" style="edgeStyle=orthogonalEdgeStyle;rounded=0;orthogonalLoop=1;jettySize=auto;html=1;exitX=1;exitY=0.5;exitDx=0;exitDy=0;entryX=0;entryY=0.5;entryDx=0;entryDy=0;" edge="1" parent="1" source="FaYPZW8Sgpp_Iw3l_1al-8" target="FaYPZW8Sgpp_Iw3l_1al-7">
          <mxGeometry relative="1" as="geometry" />
        </mxCell>
        <mxCell id="FaYPZW8Sgpp_Iw3l_1al-8" value="has&lt;br&gt;account" style="rhombus;whiteSpace=wrap;html=1;fillColor=#dae8fc;strokeColor=#6c8ebf;" vertex="1" parent="1">
          <mxGeometry x="390" y="65" width="70" height="70" as="geometry" />
        </mxCell>
        <mxCell id="FaYPZW8Sgpp_Iw3l_1al-28" style="edgeStyle=orthogonalEdgeStyle;rounded=0;orthogonalLoop=1;jettySize=auto;html=1;exitX=0.5;exitY=1;exitDx=0;exitDy=0;entryX=0.5;entryY=0;entryDx=0;entryDy=0;" edge="1" parent="1" source="FaYPZW8Sgpp_Iw3l_1al-11" target="FaYPZW8Sgpp_Iw3l_1al-13">
          <mxGeometry relative="1" as="geometry" />
        </mxCell>
        <mxCell id="FaYPZW8Sgpp_Iw3l_1al-11" value="Select Action" style="rounded=1;whiteSpace=wrap;html=1;fillColor=#ffe6cc;strokeColor=#d79b00;" vertex="1" parent="1">
          <mxGeometry x="375" y="160" width="100" height="40" as="geometry" />
        </mxCell>
        <mxCell id="FaYPZW8Sgpp_Iw3l_1al-29" value="Account" style="edgeStyle=orthogonalEdgeStyle;rounded=0;orthogonalLoop=1;jettySize=auto;html=1;exitX=0;exitY=0.5;exitDx=0;exitDy=0;entryX=0.5;entryY=0;entryDx=0;entryDy=0;" edge="1" parent="1" source="FaYPZW8Sgpp_Iw3l_1al-13" target="FaYPZW8Sgpp_Iw3l_1al-19">
          <mxGeometry relative="1" as="geometry" />
        </mxCell>
        <mxCell id="FaYPZW8Sgpp_Iw3l_1al-30" value="Friend" style="edgeStyle=orthogonalEdgeStyle;rounded=0;orthogonalLoop=1;jettySize=auto;html=1;exitX=0.5;exitY=1;exitDx=0;exitDy=0;entryX=0.5;entryY=0;entryDx=0;entryDy=0;" edge="1" parent="1" source="FaYPZW8Sgpp_Iw3l_1al-13" target="FaYPZW8Sgpp_Iw3l_1al-21">
          <mxGeometry relative="1" as="geometry" />
        </mxCell>
        <mxCell id="FaYPZW8Sgpp_Iw3l_1al-31" value="Travel Group" style="edgeStyle=orthogonalEdgeStyle;rounded=0;orthogonalLoop=1;jettySize=auto;html=1;exitX=1;exitY=0.5;exitDx=0;exitDy=0;entryX=0.5;entryY=0;entryDx=0;entryDy=0;" edge="1" parent="1" source="FaYPZW8Sgpp_Iw3l_1al-13" target="FaYPZW8Sgpp_Iw3l_1al-24">
          <mxGeometry relative="1" as="geometry" />
        </mxCell>
        <mxCell id="FaYPZW8Sgpp_Iw3l_1al-13" value="Selected&lt;br&gt;Page" style="rhombus;whiteSpace=wrap;html=1;fillColor=#dae8fc;strokeColor=#6c8ebf;" vertex="1" parent="1">
          <mxGeometry x="390" y="220" width="70" height="70" as="geometry" />
        </mxCell>
        <mxCell id="FaYPZW8Sgpp_Iw3l_1al-36" style="edgeStyle=orthogonalEdgeStyle;rounded=0;orthogonalLoop=1;jettySize=auto;html=1;exitX=0.5;exitY=1;exitDx=0;exitDy=0;entryX=0.5;entryY=0;entryDx=0;entryDy=0;" edge="1" parent="1" source="FaYPZW8Sgpp_Iw3l_1al-19" target="FaYPZW8Sgpp_Iw3l_1al-20">
          <mxGeometry relative="1" as="geometry" />
        </mxCell>
        <mxCell id="FaYPZW8Sgpp_Iw3l_1al-19" value="Change Personal&lt;br&gt;Information" style="rounded=1;whiteSpace=wrap;html=1;fillColor=#ffe6cc;strokeColor=#d79b00;" vertex="1" parent="1">
          <mxGeometry x="180" y="320" width="100" height="40" as="geometry" />
        </mxCell>
        <mxCell id="FaYPZW8Sgpp_Iw3l_1al-37" style="edgeStyle=orthogonalEdgeStyle;rounded=0;orthogonalLoop=1;jettySize=auto;html=1;exitX=0.5;exitY=1;exitDx=0;exitDy=0;entryX=0.5;entryY=0;entryDx=0;entryDy=0;" edge="1" parent="1" source="FaYPZW8Sgpp_Iw3l_1al-20" target="FaYPZW8Sgpp_Iw3l_1al-101">
          <mxGeometry relative="1" as="geometry">
            <mxPoint x="160" y="200" as="targetPoint" />
            <Array as="points">
              <mxPoint x="230" y="740" />
              <mxPoint x="425" y="740" />
            </Array>
          </mxGeometry>
        </mxCell>
        <mxCell id="FaYPZW8Sgpp_Iw3l_1al-20" value="Commit Changes" style="rounded=1;whiteSpace=wrap;html=1;fillColor=#ffe6cc;strokeColor=#d79b00;" vertex="1" parent="1">
          <mxGeometry x="180" y="380" width="100" height="40" as="geometry" />
        </mxCell>
        <mxCell id="FaYPZW8Sgpp_Iw3l_1al-50" style="edgeStyle=orthogonalEdgeStyle;rounded=0;orthogonalLoop=1;jettySize=auto;html=1;exitX=0.5;exitY=1;exitDx=0;exitDy=0;entryX=0.5;entryY=0;entryDx=0;entryDy=0;" edge="1" parent="1" source="FaYPZW8Sgpp_Iw3l_1al-21" target="FaYPZW8Sgpp_Iw3l_1al-23">
          <mxGeometry relative="1" as="geometry" />
        </mxCell>
        <mxCell id="FaYPZW8Sgpp_Iw3l_1al-21" value="Select Friend&lt;br&gt;Action" style="rounded=1;whiteSpace=wrap;html=1;fillColor=#ffe6cc;strokeColor=#d79b00;" vertex="1" parent="1">
          <mxGeometry x="375" y="320" width="100" height="40" as="geometry" />
        </mxCell>
        <mxCell id="FaYPZW8Sgpp_Iw3l_1al-44" style="edgeStyle=orthogonalEdgeStyle;rounded=0;orthogonalLoop=1;jettySize=auto;html=1;exitX=0.5;exitY=1;exitDx=0;exitDy=0;entryX=0.5;entryY=0;entryDx=0;entryDy=0;" edge="1" parent="1" source="FaYPZW8Sgpp_Iw3l_1al-22" target="FaYPZW8Sgpp_Iw3l_1al-39">
          <mxGeometry relative="1" as="geometry" />
        </mxCell>
        <mxCell id="FaYPZW8Sgpp_Iw3l_1al-22" value="Search Friend by&lt;br&gt;Username" style="rounded=1;whiteSpace=wrap;html=1;fillColor=#ffe6cc;strokeColor=#d79b00;" vertex="1" parent="1">
          <mxGeometry x="290" y="480" width="100" height="40" as="geometry" />
        </mxCell>
        <mxCell id="FaYPZW8Sgpp_Iw3l_1al-38" value="Search&lt;br&gt;Friend" style="edgeStyle=orthogonalEdgeStyle;rounded=0;orthogonalLoop=1;jettySize=auto;html=1;exitX=0;exitY=0.5;exitDx=0;exitDy=0;entryX=0.5;entryY=0;entryDx=0;entryDy=0;" edge="1" parent="1" source="FaYPZW8Sgpp_Iw3l_1al-23" target="FaYPZW8Sgpp_Iw3l_1al-22">
          <mxGeometry relative="1" as="geometry" />
        </mxCell>
        <mxCell id="FaYPZW8Sgpp_Iw3l_1al-49" value="View&lt;br&gt;List" style="edgeStyle=orthogonalEdgeStyle;rounded=0;orthogonalLoop=1;jettySize=auto;html=1;exitX=1;exitY=0.5;exitDx=0;exitDy=0;entryX=0.5;entryY=0;entryDx=0;entryDy=0;" edge="1" parent="1" source="FaYPZW8Sgpp_Iw3l_1al-23" target="FaYPZW8Sgpp_Iw3l_1al-40">
          <mxGeometry relative="1" as="geometry" />
        </mxCell>
        <mxCell id="FaYPZW8Sgpp_Iw3l_1al-23" value="Selected&lt;br&gt;Action" style="rhombus;whiteSpace=wrap;html=1;fillColor=#dae8fc;strokeColor=#6c8ebf;" vertex="1" parent="1">
          <mxGeometry x="390" y="390" width="70" height="70" as="geometry" />
        </mxCell>
        <mxCell id="FaYPZW8Sgpp_Iw3l_1al-56" style="edgeStyle=orthogonalEdgeStyle;rounded=0;orthogonalLoop=1;jettySize=auto;html=1;exitX=0.5;exitY=1;exitDx=0;exitDy=0;entryX=0.5;entryY=0;entryDx=0;entryDy=0;" edge="1" parent="1" source="FaYPZW8Sgpp_Iw3l_1al-24" target="FaYPZW8Sgpp_Iw3l_1al-26">
          <mxGeometry relative="1" as="geometry" />
        </mxCell>
        <mxCell id="FaYPZW8Sgpp_Iw3l_1al-24" value="Select Group&lt;br&gt;Action" style="rounded=1;whiteSpace=wrap;html=1;fillColor=#ffe6cc;strokeColor=#d79b00;" vertex="1" parent="1">
          <mxGeometry x="580" y="320" width="100" height="40" as="geometry" />
        </mxCell>
        <mxCell id="FaYPZW8Sgpp_Iw3l_1al-59" style="edgeStyle=orthogonalEdgeStyle;rounded=0;orthogonalLoop=1;jettySize=auto;html=1;exitX=1;exitY=0.5;exitDx=0;exitDy=0;entryX=0.5;entryY=0;entryDx=0;entryDy=0;" edge="1" parent="1" source="FaYPZW8Sgpp_Iw3l_1al-26" target="FaYPZW8Sgpp_Iw3l_1al-58">
          <mxGeometry relative="1" as="geometry" />
        </mxCell>
        <mxCell id="FaYPZW8Sgpp_Iw3l_1al-60" style="edgeStyle=orthogonalEdgeStyle;rounded=0;orthogonalLoop=1;jettySize=auto;html=1;exitX=0;exitY=0.5;exitDx=0;exitDy=0;entryX=0.5;entryY=0;entryDx=0;entryDy=0;" edge="1" parent="1" source="FaYPZW8Sgpp_Iw3l_1al-26" target="FaYPZW8Sgpp_Iw3l_1al-57">
          <mxGeometry relative="1" as="geometry" />
        </mxCell>
        <mxCell id="FaYPZW8Sgpp_Iw3l_1al-64" style="edgeStyle=orthogonalEdgeStyle;rounded=0;orthogonalLoop=1;jettySize=auto;html=1;exitX=0.5;exitY=1;exitDx=0;exitDy=0;entryX=0.5;entryY=0;entryDx=0;entryDy=0;" edge="1" parent="1" source="FaYPZW8Sgpp_Iw3l_1al-26" target="FaYPZW8Sgpp_Iw3l_1al-54">
          <mxGeometry relative="1" as="geometry" />
        </mxCell>
        <mxCell id="FaYPZW8Sgpp_Iw3l_1al-26" value="Selected&lt;br&gt;Action" style="rhombus;whiteSpace=wrap;html=1;fillColor=#dae8fc;strokeColor=#6c8ebf;" vertex="1" parent="1">
          <mxGeometry x="650" y="390" width="70" height="70" as="geometry" />
        </mxCell>
        <mxCell id="FaYPZW8Sgpp_Iw3l_1al-107" style="edgeStyle=orthogonalEdgeStyle;rounded=0;orthogonalLoop=1;jettySize=auto;html=1;exitX=0.5;exitY=1;exitDx=0;exitDy=0;entryX=0.5;entryY=0;entryDx=0;entryDy=0;" edge="1" parent="1" source="FaYPZW8Sgpp_Iw3l_1al-39" target="FaYPZW8Sgpp_Iw3l_1al-101">
          <mxGeometry relative="1" as="geometry" />
        </mxCell>
        <mxCell id="FaYPZW8Sgpp_Iw3l_1al-39" value="Add Friend" style="rounded=1;whiteSpace=wrap;html=1;fillColor=#ffe6cc;strokeColor=#d79b00;" vertex="1" parent="1">
          <mxGeometry x="290" y="550" width="100" height="40" as="geometry" />
        </mxCell>
        <mxCell id="FaYPZW8Sgpp_Iw3l_1al-45" style="edgeStyle=orthogonalEdgeStyle;rounded=0;orthogonalLoop=1;jettySize=auto;html=1;exitX=0.5;exitY=1;exitDx=0;exitDy=0;entryX=0.5;entryY=0;entryDx=0;entryDy=0;" edge="1" parent="1" source="FaYPZW8Sgpp_Iw3l_1al-40" target="FaYPZW8Sgpp_Iw3l_1al-43">
          <mxGeometry relative="1" as="geometry" />
        </mxCell>
        <mxCell id="FaYPZW8Sgpp_Iw3l_1al-40" value="View Friend&lt;br&gt;List" style="rounded=1;whiteSpace=wrap;html=1;fillColor=#ffe6cc;strokeColor=#d79b00;" vertex="1" parent="1">
          <mxGeometry x="460" y="480" width="100" height="40" as="geometry" />
        </mxCell>
        <mxCell id="FaYPZW8Sgpp_Iw3l_1al-106" style="edgeStyle=orthogonalEdgeStyle;rounded=0;orthogonalLoop=1;jettySize=auto;html=1;exitX=0.5;exitY=1;exitDx=0;exitDy=0;entryX=0.5;entryY=0;entryDx=0;entryDy=0;" edge="1" parent="1" source="FaYPZW8Sgpp_Iw3l_1al-43" target="FaYPZW8Sgpp_Iw3l_1al-101">
          <mxGeometry relative="1" as="geometry" />
        </mxCell>
        <mxCell id="FaYPZW8Sgpp_Iw3l_1al-43" value="Remove Friend" style="rounded=1;whiteSpace=wrap;html=1;fillColor=#ffe6cc;strokeColor=#d79b00;" vertex="1" parent="1">
          <mxGeometry x="460" y="550" width="100" height="40" as="geometry" />
        </mxCell>
        <mxCell id="FaYPZW8Sgpp_Iw3l_1al-73" style="edgeStyle=orthogonalEdgeStyle;rounded=0;orthogonalLoop=1;jettySize=auto;html=1;exitX=0.5;exitY=1;exitDx=0;exitDy=0;entryX=0.5;entryY=0;entryDx=0;entryDy=0;" edge="1" parent="1" source="FaYPZW8Sgpp_Iw3l_1al-54" target="FaYPZW8Sgpp_Iw3l_1al-66">
          <mxGeometry relative="1" as="geometry" />
        </mxCell>
        <mxCell id="FaYPZW8Sgpp_Iw3l_1al-54" value="Search Group with Image, Location, Time" style="rounded=1;whiteSpace=wrap;html=1;fillColor=#ffe6cc;strokeColor=#d79b00;" vertex="1" parent="1">
          <mxGeometry x="635" y="560" width="100" height="40" as="geometry" />
        </mxCell>
        <mxCell id="FaYPZW8Sgpp_Iw3l_1al-61" style="edgeStyle=orthogonalEdgeStyle;rounded=0;orthogonalLoop=1;jettySize=auto;html=1;exitX=0.25;exitY=0;exitDx=0;exitDy=0;entryX=0.25;entryY=1;entryDx=0;entryDy=0;" edge="1" parent="1" source="FaYPZW8Sgpp_Iw3l_1al-57" target="FaYPZW8Sgpp_Iw3l_1al-24">
          <mxGeometry relative="1" as="geometry" />
        </mxCell>
        <mxCell id="FaYPZW8Sgpp_Iw3l_1al-57" value="Change &amp;amp; Remove Created Group. Check Join Request" style="rounded=1;whiteSpace=wrap;html=1;fillColor=#ffe6cc;strokeColor=#d79b00;" vertex="1" parent="1">
          <mxGeometry x="570" y="480" width="100" height="60" as="geometry" />
        </mxCell>
        <mxCell id="FaYPZW8Sgpp_Iw3l_1al-62" style="edgeStyle=orthogonalEdgeStyle;rounded=0;orthogonalLoop=1;jettySize=auto;html=1;exitX=0.75;exitY=0;exitDx=0;exitDy=0;entryX=1;entryY=0.5;entryDx=0;entryDy=0;" edge="1" parent="1" source="FaYPZW8Sgpp_Iw3l_1al-58" target="FaYPZW8Sgpp_Iw3l_1al-24">
          <mxGeometry relative="1" as="geometry" />
        </mxCell>
        <mxCell id="FaYPZW8Sgpp_Iw3l_1al-58" value="Create Group with Travel Route, Time, Remarks" style="rounded=1;whiteSpace=wrap;html=1;fillColor=#ffe6cc;strokeColor=#d79b00;" vertex="1" parent="1">
          <mxGeometry x="700" y="480" width="100" height="60" as="geometry" />
        </mxCell>
        <mxCell id="FaYPZW8Sgpp_Iw3l_1al-71" value="No" style="edgeStyle=orthogonalEdgeStyle;rounded=0;orthogonalLoop=1;jettySize=auto;html=1;exitX=0;exitY=0.5;exitDx=0;exitDy=0;entryX=1;entryY=0.5;entryDx=0;entryDy=0;" edge="1" parent="1" source="FaYPZW8Sgpp_Iw3l_1al-66" target="FaYPZW8Sgpp_Iw3l_1al-69">
          <mxGeometry relative="1" as="geometry" />
        </mxCell>
        <mxCell id="FaYPZW8Sgpp_Iw3l_1al-74" value="Yes" style="edgeStyle=orthogonalEdgeStyle;rounded=0;orthogonalLoop=1;jettySize=auto;html=1;exitX=0.5;exitY=1;exitDx=0;exitDy=0;entryX=0.5;entryY=0;entryDx=0;entryDy=0;" edge="1" parent="1" source="FaYPZW8Sgpp_Iw3l_1al-66" target="FaYPZW8Sgpp_Iw3l_1al-76">
          <mxGeometry relative="1" as="geometry">
            <mxPoint x="685" y="740" as="targetPoint" />
          </mxGeometry>
        </mxCell>
        <mxCell id="FaYPZW8Sgpp_Iw3l_1al-66" value="Result&lt;br&gt;Clear?" style="rhombus;whiteSpace=wrap;html=1;fillColor=#dae8fc;strokeColor=#6c8ebf;" vertex="1" parent="1">
          <mxGeometry x="650" y="630" width="70" height="70" as="geometry" />
        </mxCell>
        <mxCell id="FaYPZW8Sgpp_Iw3l_1al-70" style="edgeStyle=orthogonalEdgeStyle;rounded=0;orthogonalLoop=1;jettySize=auto;html=1;exitX=0.75;exitY=0;exitDx=0;exitDy=0;entryX=0;entryY=0.5;entryDx=0;entryDy=0;" edge="1" parent="1" source="FaYPZW8Sgpp_Iw3l_1al-69" target="FaYPZW8Sgpp_Iw3l_1al-54">
          <mxGeometry relative="1" as="geometry" />
        </mxCell>
        <mxCell id="FaYPZW8Sgpp_Iw3l_1al-69" value="Add More Search Criteria" style="rounded=1;whiteSpace=wrap;html=1;fillColor=#ffe6cc;strokeColor=#d79b00;" vertex="1" parent="1">
          <mxGeometry x="520" y="645" width="100" height="40" as="geometry" />
        </mxCell>
        <mxCell id="FaYPZW8Sgpp_Iw3l_1al-97" style="edgeStyle=orthogonalEdgeStyle;rounded=0;orthogonalLoop=1;jettySize=auto;html=1;exitX=0;exitY=0.5;exitDx=0;exitDy=0;entryX=0.5;entryY=0;entryDx=0;entryDy=0;" edge="1" parent="1" source="FaYPZW8Sgpp_Iw3l_1al-76" target="FaYPZW8Sgpp_Iw3l_1al-92">
          <mxGeometry relative="1" as="geometry" />
        </mxCell>
        <mxCell id="FaYPZW8Sgpp_Iw3l_1al-76" value="View Groups Information" style="rounded=1;whiteSpace=wrap;html=1;fillColor=#ffe6cc;strokeColor=#d79b00;" vertex="1" parent="1">
          <mxGeometry x="635" y="730" width="100" height="40" as="geometry" />
        </mxCell>
        <mxCell id="FaYPZW8Sgpp_Iw3l_1al-96" style="edgeStyle=orthogonalEdgeStyle;rounded=0;orthogonalLoop=1;jettySize=auto;html=1;exitX=0.5;exitY=0;exitDx=0;exitDy=0;entryX=0.5;entryY=1;entryDx=0;entryDy=0;" edge="1" parent="1" source="FaYPZW8Sgpp_Iw3l_1al-78" target="FaYPZW8Sgpp_Iw3l_1al-76">
          <mxGeometry relative="1" as="geometry" />
        </mxCell>
        <mxCell id="FaYPZW8Sgpp_Iw3l_1al-78" value="Send Join Request" style="rounded=1;whiteSpace=wrap;html=1;fillColor=#ffe6cc;strokeColor=#d79b00;" vertex="1" parent="1">
          <mxGeometry x="635" y="805" width="100" height="40" as="geometry" />
        </mxCell>
        <mxCell id="FaYPZW8Sgpp_Iw3l_1al-86" value="" style="ellipse;whiteSpace=wrap;html=1;aspect=fixed;fillColor=#FFFFFF;" vertex="1" parent="1">
          <mxGeometry x="410" y="890" width="30" height="30" as="geometry" />
        </mxCell>
        <mxCell id="FaYPZW8Sgpp_Iw3l_1al-83" value="" style="ellipse;whiteSpace=wrap;html=1;aspect=fixed;fillColor=#000000;" vertex="1" parent="1">
          <mxGeometry x="415" y="895" width="20" height="20" as="geometry" />
        </mxCell>
        <mxCell id="FaYPZW8Sgpp_Iw3l_1al-93" value="No" style="edgeStyle=orthogonalEdgeStyle;rounded=0;orthogonalLoop=1;jettySize=auto;html=1;exitX=0;exitY=0.5;exitDx=0;exitDy=0;entryX=1;entryY=0.5;entryDx=0;entryDy=0;" edge="1" parent="1" source="FaYPZW8Sgpp_Iw3l_1al-92" target="FaYPZW8Sgpp_Iw3l_1al-101">
          <mxGeometry relative="1" as="geometry" />
        </mxCell>
        <mxCell id="FaYPZW8Sgpp_Iw3l_1al-94" value="Yes" style="edgeStyle=orthogonalEdgeStyle;rounded=0;orthogonalLoop=1;jettySize=auto;html=1;exitX=1;exitY=0.5;exitDx=0;exitDy=0;entryX=0;entryY=0.5;entryDx=0;entryDy=0;" edge="1" parent="1" source="FaYPZW8Sgpp_Iw3l_1al-92" target="FaYPZW8Sgpp_Iw3l_1al-78">
          <mxGeometry relative="1" as="geometry" />
        </mxCell>
        <mxCell id="FaYPZW8Sgpp_Iw3l_1al-92" value="Interested?" style="rhombus;whiteSpace=wrap;html=1;fillColor=#dae8fc;strokeColor=#6c8ebf;" vertex="1" parent="1">
          <mxGeometry x="525" y="790" width="70" height="70" as="geometry" />
        </mxCell>
        <mxCell id="FaYPZW8Sgpp_Iw3l_1al-108" value="Yes" style="edgeStyle=orthogonalEdgeStyle;rounded=0;orthogonalLoop=1;jettySize=auto;html=1;exitX=0.5;exitY=1;exitDx=0;exitDy=0;entryX=0.5;entryY=0;entryDx=0;entryDy=0;" edge="1" parent="1" source="FaYPZW8Sgpp_Iw3l_1al-101" target="FaYPZW8Sgpp_Iw3l_1al-86">
          <mxGeometry relative="1" as="geometry" />
        </mxCell>
        <mxCell id="FaYPZW8Sgpp_Iw3l_1al-109" value="No" style="edgeStyle=orthogonalEdgeStyle;rounded=0;orthogonalLoop=1;jettySize=auto;html=1;exitX=0;exitY=0.5;exitDx=0;exitDy=0;entryX=0;entryY=0.75;entryDx=0;entryDy=0;" edge="1" parent="1" source="FaYPZW8Sgpp_Iw3l_1al-101" target="FaYPZW8Sgpp_Iw3l_1al-11">
          <mxGeometry x="-0.9057" relative="1" as="geometry">
            <Array as="points">
              <mxPoint x="170" y="825" />
              <mxPoint x="170" y="190" />
            </Array>
            <mxPoint x="-1" as="offset" />
          </mxGeometry>
        </mxCell>
        <mxCell id="FaYPZW8Sgpp_Iw3l_1al-101" value="Finished?" style="rhombus;whiteSpace=wrap;html=1;fillColor=#dae8fc;strokeColor=#6c8ebf;" vertex="1" parent="1">
          <mxGeometry x="390" y="790" width="70" height="70" as="geometry" />
        </mxCell>
      </root>
    </mxGraphModel>
  </diagram>
</mxfile>
